<svg width="96" height="30" viewBox="0 0 96 30" fill="none" xmlns="http://www.w3.org/2000/svg">
<path d="M1.896 24V7.08H4.608L10.824 21.072H10.08L16.296 7.08H18.984V24H16.176V11.448H17.04L11.352 24H9.504L3.816 11.448H4.704V24H1.896ZM22.2748 29.448L21.5788 27.072C22.3308 26.912 22.9628 26.728 23.4748 26.52C23.9868 26.312 24.4108 26.04 24.7468 25.704C25.0828 25.368 25.3628 24.936 25.5868 24.408L26.1868 22.992L26.1148 24.168L20.8348 11.88H24.0268L27.8188 21.336H27.1228L30.9388 11.88H33.9628L28.4428 24.672C28.0748 25.536 27.6748 26.248 27.2428 26.808C26.8108 27.384 26.3468 27.84 25.8508 28.176C25.3548 28.528 24.8108 28.8 24.2188 28.992C23.6268 29.184 22.9788 29.336 22.2748 29.448ZM40.5 24L48.156 7.08H50.748L58.5 24H55.356L53.292 19.248L54.54 20.088H44.388L45.684 19.248L43.62 24H40.5ZM49.428 10.392L46.044 18.408L45.42 17.664H53.484L52.98 18.408L49.524 10.392H49.428ZM60.132 29.184V14.904C60.132 14.408 60.116 13.904 60.084 13.392C60.052 12.88 60.004 12.376 59.94 11.88H62.844L63.108 14.424H62.844C63.084 13.576 63.588 12.904 64.356 12.408C65.14 11.896 66.044 11.64 67.068 11.64C68.14 11.64 69.076 11.896 69.876 12.408C70.676 12.904 71.3 13.624 71.748 14.568C72.196 15.496 72.42 16.616 72.42 17.928C72.42 19.24 72.196 20.368 71.748 21.312C71.3 22.256 70.676 22.984 69.876 23.496C69.076 23.992 68.14 24.24 67.068 24.24C66.06 24.24 65.172 23.992 64.404 23.496C63.636 23 63.124 22.336 62.868 21.504H63.132V29.184H60.132ZM66.228 21.936C67.188 21.936 67.956 21.608 68.532 20.952C69.108 20.28 69.396 19.272 69.396 17.928C69.396 16.584 69.108 15.584 68.532 14.928C67.956 14.272 67.188 13.944 66.228 13.944C65.284 13.944 64.524 14.272 63.948 14.928C63.372 15.584 63.084 16.584 63.084 17.928C63.084 19.272 63.372 20.28 63.948 20.952C64.524 21.608 65.284 21.936 66.228 21.936ZM75.0148 29.184V14.904C75.0148 14.408 74.9988 13.904 74.9668 13.392C74.9348 12.88 74.8868 12.376 74.8228 11.88H77.7268L77.9908 14.424H77.7268C77.9668 13.576 78.4708 12.904 79.2388 12.408C80.0228 11.896 80.9268 11.64 81.9508 11.64C83.0228 11.64 83.9588 11.896 84.7588 12.408C85.5588 12.904 86.1828 13.624 86.6308 14.568C87.0788 15.496 87.3028 16.616 87.3028 17.928C87.3028 19.24 87.0788 20.368 86.6308 21.312C86.1828 22.256 85.5588 22.984 84.7588 23.496C83.9588 23.992 83.0228 24.24 81.9508 24.24C80.9428 24.24 80.0548 23.992 79.2868 23.496C78.5188 23 78.0068 22.336 77.7508 21.504H78.0148V29.184H75.0148ZM81.1108 21.936C82.0708 21.936 82.8388 21.608 83.4148 20.952C83.9908 20.28 84.2788 19.272 84.2788 17.928C84.2788 16.584 83.9908 15.584 83.4148 14.928C82.8388 14.272 82.0708 13.944 81.1108 13.944C80.1668 13.944 79.4068 14.272 78.8308 14.928C78.2548 15.584 77.9668 16.584 77.9668 17.928C77.9668 19.272 78.2548 20.28 78.8308 20.952C79.4068 21.608 80.1668 21.936 81.1108 21.936Z" fill="white"/>
</svg>
