<svg width="25" height="26" viewBox="0 0 25 26" fill="none" xmlns="http://www.w3.org/2000/svg">
<path d="M4.16667 14.3923H10.4167C10.6929 14.3923 10.9579 14.2825 11.1532 14.0872C11.3486 13.8918 11.4583 13.6269 11.4583 13.3506V5.01725C11.4583 4.74099 11.3486 4.47603 11.1532 4.28068C10.9579 4.08533 10.6929 3.97559 10.4167 3.97559H4.16667C3.8904 3.97559 3.62545 4.08533 3.4301 4.28068C3.23475 4.47603 3.125 4.74099 3.125 5.01725V13.3506C3.125 13.6269 3.23475 13.8918 3.4301 14.0872C3.62545 14.2825 3.8904 14.3923 4.16667 14.3923ZM3.125 21.6839C3.125 21.9602 3.23475 22.2251 3.4301 22.4205C3.62545 22.6158 3.8904 22.7256 4.16667 22.7256H10.4167C10.6929 22.7256 10.9579 22.6158 11.1532 22.4205C11.3486 22.2251 11.4583 21.9602 11.4583 21.6839V17.5173C11.4583 17.241 11.3486 16.976 11.1532 16.7807C10.9579 16.5853 10.6929 16.4756 10.4167 16.4756H4.16667C3.8904 16.4756 3.62545 16.5853 3.4301 16.7807C3.23475 16.976 3.125 17.241 3.125 17.5173V21.6839ZM13.5417 21.6839C13.5417 21.9602 13.6514 22.2251 13.8468 22.4205C14.0421 22.6158 14.3071 22.7256 14.5833 22.7256H20.8333C21.1096 22.7256 21.3745 22.6158 21.5699 22.4205C21.7653 22.2251 21.875 21.9602 21.875 21.6839V14.3923C21.875 14.116 21.7653 13.851 21.5699 13.6557C21.3745 13.4603 21.1096 13.3506 20.8333 13.3506H14.5833C14.3071 13.3506 14.0421 13.4603 13.8468 13.6557C13.6514 13.851 13.5417 14.116 13.5417 14.3923V21.6839ZM14.5833 11.2673H20.8333C21.1096 11.2673 21.3745 11.1575 21.5699 10.9622C21.7653 10.7668 21.875 10.5019 21.875 10.2256V5.01725C21.875 4.74099 21.7653 4.47603 21.5699 4.28068C21.3745 4.08533 21.1096 3.97559 20.8333 3.97559H14.5833C14.3071 3.97559 14.0421 4.08533 13.8468 4.28068C13.6514 4.47603 13.5417 4.74099 13.5417 5.01725V10.2256C13.5417 10.5019 13.6514 10.7668 13.8468 10.9622C14.0421 11.1575 14.3071 11.2673 14.5833 11.2673Z" fill="#C1C6DB"/>
</svg>
