<svg width="16" height="16" viewBox="0 0 16 16" fill="none" xmlns="http://www.w3.org/2000/svg">
<path d="M3.83705 1.89174C5.02232 1.20201 6.31473 0.857142 7.71429 0.857142C9.11384 0.857142 10.4029 1.20201 11.5815 1.89174C12.7667 2.58147 13.7042 3.51897 14.394 4.70424C15.0837 5.88281 15.4286 7.17187 15.4286 8.57143C15.4286 10.2522 14.9364 11.7656 13.952 13.1116C12.9743 14.4509 11.7087 15.3783 10.1551 15.894C9.97433 15.9275 9.8404 15.904 9.75335 15.8237C9.6663 15.7433 9.62277 15.6429 9.62277 15.5223C9.62277 15.5022 9.62277 15.2478 9.62277 14.7589C9.62946 14.2634 9.63281 13.8114 9.63281 13.4029C9.63281 12.7533 9.45871 12.2779 9.11049 11.9766C9.49219 11.9364 9.83371 11.8761 10.135 11.7958C10.4431 11.7154 10.7578 11.5848 11.0792 11.404C11.4074 11.2232 11.6786 11.0022 11.8929 10.7411C12.1138 10.4732 12.2913 10.1217 12.4252 9.68638C12.5658 9.24442 12.6362 8.73884 12.6362 8.16964C12.6362 7.37277 12.3717 6.68304 11.8426 6.10045C12.0904 5.49107 12.0636 4.80803 11.7623 4.05134C11.5748 3.99107 11.3036 4.0279 10.9487 4.16183C10.5938 4.29576 10.2857 4.44308 10.0246 4.60379L9.64286 4.84487C9.02009 4.67076 8.37723 4.5837 7.71429 4.5837C7.05134 4.5837 6.40848 4.67076 5.78571 4.84487C5.67857 4.77121 5.5346 4.6808 5.35379 4.57366C5.17969 4.46652 4.90179 4.33928 4.52009 4.19196C4.13839 4.03795 3.85379 3.99107 3.66629 4.05134C3.36496 4.80803 3.33817 5.49107 3.58594 6.10045C3.05692 6.68304 2.79241 7.37277 2.79241 8.16964C2.79241 8.73884 2.85938 9.24107 2.9933 9.67634C3.13393 10.1116 3.31138 10.4632 3.52567 10.731C3.73996 10.9989 4.00781 11.2232 4.32924 11.404C4.65737 11.5848 4.9721 11.7154 5.27344 11.7958C5.58147 11.8761 5.92634 11.9364 6.30804 11.9766C6.04688 12.2176 5.88281 12.5625 5.81585 13.0112C5.67522 13.0781 5.52455 13.1283 5.36384 13.1618C5.20313 13.1953 5.01228 13.2121 4.79129 13.2121C4.57031 13.2121 4.34933 13.1417 4.12835 13.0011C3.91406 12.8538 3.72991 12.6429 3.57589 12.3683C3.44866 12.154 3.2846 11.9799 3.08371 11.846C2.88951 11.7121 2.72545 11.6317 2.59152 11.6049L2.39062 11.5748C2.25 11.5748 2.1529 11.5915 2.09933 11.625C2.04576 11.6518 2.02902 11.6886 2.04911 11.7355C2.0692 11.7824 2.09933 11.8292 2.13951 11.8761C2.17969 11.923 2.22321 11.9632 2.27009 11.9967L2.3404 12.0469C2.48772 12.1138 2.6317 12.2411 2.77232 12.4286C2.91964 12.6161 3.02679 12.7868 3.09375 12.9408L3.1942 13.1719C3.28125 13.4263 3.42857 13.6339 3.63616 13.7946C3.84375 13.9487 4.06808 14.0491 4.30915 14.096C4.55022 14.1362 4.78125 14.1596 5.00223 14.1663C5.22991 14.1663 5.41741 14.1529 5.56473 14.1261L5.79576 14.0859C5.79576 14.3404 5.79576 14.6384 5.79576 14.9799C5.80246 15.3147 5.8058 15.4955 5.8058 15.5223C5.8058 15.6429 5.76228 15.7433 5.67522 15.8237C5.58817 15.904 5.45424 15.9275 5.27344 15.894C3.71987 15.3783 2.45089 14.4509 1.46652 13.1116C0.488839 11.7656 0 10.2522 0 8.57143C0 7.17187 0.344866 5.88281 1.0346 4.70424C1.72433 3.51897 2.65848 2.58147 3.83705 1.89174ZM2.92299 11.9364C2.94308 11.8895 2.91964 11.8493 2.85268 11.8158C2.78571 11.7958 2.74219 11.8025 2.7221 11.8359C2.70201 11.8828 2.72545 11.923 2.79241 11.9565C2.85268 11.9967 2.89621 11.99 2.92299 11.9364ZM3.23438 12.2779C3.28125 12.2444 3.27455 12.1908 3.21429 12.1172C3.14732 12.0569 3.09375 12.0469 3.05357 12.0871C3.0067 12.1205 3.01339 12.1741 3.07366 12.2478C3.14063 12.3147 3.1942 12.3248 3.23438 12.2779ZM3.53571 12.7299C3.59598 12.683 3.59598 12.6194 3.53571 12.5391C3.48214 12.452 3.42522 12.4319 3.36496 12.4788C3.30469 12.5123 3.30469 12.5725 3.36496 12.6596C3.42522 12.7467 3.48214 12.7701 3.53571 12.7299ZM3.95759 13.1518C4.01116 13.0982 3.99777 13.0346 3.91741 12.9609C3.83705 12.8806 3.77009 12.8705 3.71652 12.9308C3.65625 12.9844 3.66964 13.048 3.7567 13.1217C3.83705 13.202 3.90402 13.2121 3.95759 13.1518ZM4.53013 13.4029C4.55022 13.3292 4.5067 13.2757 4.39955 13.2422C4.29911 13.2154 4.23549 13.2388 4.20871 13.3125C4.18192 13.3862 4.22545 13.4364 4.33929 13.4632C4.43973 13.5033 4.50335 13.4833 4.53013 13.4029ZM5.16295 13.4531C5.16295 13.3661 5.10603 13.3292 4.99219 13.3426C4.88504 13.3426 4.83147 13.3795 4.83147 13.4531C4.83147 13.5402 4.88839 13.577 5.00223 13.5636C5.10938 13.5636 5.16295 13.5268 5.16295 13.4531ZM5.74554 13.3527C5.73214 13.279 5.67188 13.2489 5.56473 13.2623C5.45759 13.2824 5.41071 13.3326 5.42411 13.4129C5.4375 13.4933 5.49777 13.5201 5.60491 13.4933C5.71205 13.4665 5.75893 13.4196 5.74554 13.3527Z" fill="white"/>
</svg>
