<svg width="22" height="23" viewBox="0 0 22 23" fill="none" xmlns="http://www.w3.org/2000/svg">
  <path d="M7.5625 15.0225L4.125 18.46" stroke="#f00f00" stroke-width="2" stroke-linecap="round" stroke-linejoin="round"/>
  <path d="M13.2602 3.13729L7.90628 8.4912C7.90628 8.4912 5.52581 7.29667 2.97347 9.35917C2.89836 9.41994 2.83691 9.49586 2.79312 9.58198C2.74933 9.6681 2.72418 9.76249 2.71932 9.85898C2.71445 9.95547 2.72998 10.0519 2.76489 10.142C2.79979 10.2321 2.85329 10.3138 2.9219 10.3818L12.186 19.6459C12.2553 19.7164 12.3391 19.7712 12.4315 19.8064C12.524 19.8417 12.6229 19.8565 12.7217 19.85C12.8204 19.8435 12.9165 19.8157 13.0035 19.7686C13.0905 19.7215 13.1664 19.6562 13.2258 19.5771C13.9477 18.6232 15.0821 16.6467 14.0938 14.6787L19.4477 9.32479C19.5126 9.26082 19.5642 9.18457 19.5994 9.10047C19.6347 9.01638 19.6528 8.92612 19.6528 8.83495C19.6528 8.74378 19.6347 8.65352 19.5994 8.56942C19.5642 8.48533 19.5126 8.40907 19.4477 8.3451L14.2399 3.13729C14.1759 3.07233 14.0996 3.02075 14.0156 2.98553C13.9315 2.95032 13.8412 2.93219 13.75 2.93219C13.6589 2.93219 13.5686 2.95032 13.4845 2.98553C13.4004 3.02075 13.3242 3.07233 13.2602 3.13729Z" stroke="#f00f00" stroke-width="2" stroke-linecap="round" stroke-linejoin="round"/>
</svg>
