<svg width="22" height="22" viewBox="0 0 22 22" fill="none" xmlns="http://www.w3.org/2000/svg">
  <path d="M21.9182 8.63294C21.7278 8.08363 21.239 7.68144 20.6505 7.59412L14.9264 6.743L12.4383 1.57712C12.1764 1.03469 11.616 0.6875 11 0.6875C10.384 0.6875 9.82372 1.03469 9.56179 1.57712L7.07372 6.743L1.34891 7.59412C0.761098 7.68144 0.272285 8.08363 0.0825353 8.63294C-0.106527 9.18363 0.0364728 9.79 0.451723 10.2039L4.64685 14.3921L3.67404 20.2022C3.57504 20.7873 3.82872 21.3744 4.32579 21.7167C4.59872 21.9044 4.91979 22 5.24085 22C5.50485 22 5.76954 21.9354 6.00947 21.8068L11 19.1201L15.9913 21.8068C16.2312 21.9354 16.4959 22 16.7592 22C17.0803 22 17.4014 21.9044 17.675 21.7167C18.172 21.3744 18.4244 20.7873 18.326 20.2022L17.3525 14.3921L21.549 10.2039C21.9636 9.78931 22.1059 9.18294 21.9182 8.63294ZM16.2168 13.3121C15.8648 13.6627 15.7053 14.157 15.7857 14.6417L16.7592 20.4517L11.768 17.7664C11.5287 17.6371 11.2647 17.5732 10.9994 17.5732C10.7353 17.5732 10.4707 17.6378 10.2314 17.7664L5.24016 20.4517L6.21366 14.6417C6.29479 14.157 6.13529 13.6627 5.78329 13.3121L1.58816 9.12381L7.31229 8.27131C7.83547 8.19362 8.28579 7.86637 8.5106 7.39956L11 2.23506L13.4888 7.40025C13.7143 7.86706 14.1639 8.19362 14.6864 8.272L20.4119 9.1245L16.2168 13.3121Z" fill="#FFD700"/>
</svg>
