<svg width="38" height="39" viewBox="0 0 38 39" fill="none" xmlns="http://www.w3.org/2000/svg">
<g filter="url(#filter0_d_38_318)">
<path d="M29.265 18V24.435C29.265 25.716 28.7561 26.9445 27.8503 27.8503C26.9445 28.7561 25.716 29.265 24.435 29.265H11.565C10.284 29.265 9.05546 28.7561 8.14966 27.8503C7.24386 26.9445 6.73499 25.716 6.73499 24.435V11.565C6.73499 10.284 7.24386 9.05546 8.14966 8.14966C9.05546 7.24386 10.284 6.73499 11.565 6.73499H18" stroke="#1D1D1B" stroke-width="2" stroke-linecap="round" stroke-linejoin="round"/>
<path d="M28.9695 3.67142L25.4905 7.15039L28.8528 10.5127L32.3318 7.03372L28.9695 3.67142Z" stroke="#1D1D1B" stroke-width="2" stroke-linecap="round" stroke-linejoin="round"/>
<path d="M28.86 10.515L22.215 17.16L18.81 17.205L18.855 13.785L25.5 7.15497L28.86 10.515Z" stroke="#1D1D1B" stroke-width="2" stroke-linecap="round" stroke-linejoin="round"/>
</g>
<defs>
<filter id="filter0_d_38_318" x="-4" y="0" width="44" height="44" filterUnits="userSpaceOnUse" color-interpolation-filters="sRGB">
<feFlood flood-opacity="0" result="BackgroundImageFix"/>
<feColorMatrix in="SourceAlpha" type="matrix" values="0 0 0 0 0 0 0 0 0 0 0 0 0 0 0 0 0 0 127 0" result="hardAlpha"/>
<feOffset dy="4"/>
<feGaussianBlur stdDeviation="2"/>
<feComposite in2="hardAlpha" operator="out"/>
<feColorMatrix type="matrix" values="0 0 0 0 0 0 0 0 0 0 0 0 0 0 0 0 0 0 0.25 0"/>
<feBlend mode="normal" in2="BackgroundImageFix" result="effect1_dropShadow_38_318"/>
<feBlend mode="normal" in="SourceGraphic" in2="effect1_dropShadow_38_318" result="shape"/>
</filter>
</defs>
</svg>
