<svg width="25" height="26" viewBox="0 0 25 26" fill="none" xmlns="http://www.w3.org/2000/svg">
<path d="M19.7792 2.94647L22.9042 6.07147L20.5219 8.45481L17.3969 5.32981L19.7792 2.94647ZM8.33337 17.5173H11.4584L19.049 9.92668L15.924 6.80168L8.33337 14.3923V17.5173Z" fill="#C1C6DB"/>
<path d="M19.7917 20.6423H8.49792C8.47083 20.6423 8.44271 20.6527 8.41562 20.6527C8.38125 20.6527 8.34687 20.6434 8.31146 20.6423H5.20833V6.05898H12.3406L14.424 3.97565H5.20833C4.05937 3.97565 3.125 4.90898 3.125 6.05898V20.6423C3.125 21.7923 4.05937 22.7256 5.20833 22.7256H19.7917C20.3442 22.7256 20.8741 22.5062 21.2648 22.1155C21.6555 21.7248 21.875 21.1948 21.875 20.6423V11.6131L19.7917 13.6965V20.6423Z" fill="#C1C6DB"/>
</svg>
