<svg width="23" height="24" viewBox="0 0 23 24" fill="none" xmlns="http://www.w3.org/2000/svg">
<g clip-path="url(#clip0_0_16)">
<path d="M14.8542 14H14.0971L13.8287 13.73C14.7679 12.59 15.3333 11.11 15.3333 9.5C15.3333 5.91 12.5446 3 9.10417 3C5.66375 3 2.875 5.91 2.875 9.5C2.875 13.09 5.66375 16 9.10417 16C10.6471 16 12.0654 15.41 13.1579 14.43L13.4167 14.71V15.5L18.2083 20.49L19.6362 19L14.8542 14ZM9.10417 14C6.71792 14 4.79167 11.99 4.79167 9.5C4.79167 7.01 6.71792 5 9.10417 5C11.4904 5 13.4167 7.01 13.4167 9.5C13.4167 11.99 11.4904 14 9.10417 14Z" fill="#F2F2F2"/>
</g>
<defs>
<clipPath id="clip0_0_16">
<rect width="23" height="24" fill="white"/>
</clipPath>
</defs>
</svg>
