<svg width="23" height="26" viewBox="0 0 23 26" fill="none" xmlns="http://www.w3.org/2000/svg">
<path d="M8.41402 21.684H14.0234V23.7673H8.41402V21.684ZM15.8053 15.134C16.7683 13.8777 17.763 12.5788 17.763 10.2256C17.763 6.20584 14.8265 2.93396 11.2187 2.93396C7.61095 2.93396 4.67444 6.20584 4.67444 10.2256C4.67444 12.6058 5.67197 13.9006 6.63865 15.1527C6.97335 15.5881 7.32019 16.0392 7.65208 16.5579C7.78671 16.7725 8.00734 17.5954 8.20461 18.559H7.46417V20.6423H14.9733V18.559H14.2347C14.4338 17.5933 14.6554 16.7683 14.7891 16.5538C15.1182 16.0298 15.4678 15.5746 15.8053 15.134Z" fill="#C1C6DB"/>
</svg>
